<?xml version="1.0" encoding="utf-8"?>
<!-- Generator: Adobe Illustrator 19.2.1, SVG Export Plug-In . SVG Version: 6.00 Build 0)  -->
<svg version="1.1" id="Layer_1" xmlns="http://www.w3.org/2000/svg" xmlns:xlink="http://www.w3.org/1999/xlink" x="0px" y="0px"
	 viewBox="0 0 32 32" enable-background="new 0 0 32 32" xml:space="preserve">
<g>
	<path d="M17.1,3.1h-2.2v5.2h-2.6v7.4h2.6v13.3h2.2V15.6h2.6V8.3h-2.6V3.1z M17.5,13.4h-2.9v-2.9h2.9V13.4z"/>
	<path d="M27.4,3.1h-2.2v12.2h-2.6v7.4h2.6v6.3h2.2v-6.3H30v-7.4h-2.6V3.1z M27.8,20.4h-2.9v-2.9h2.9V20.4z"/>
	<path d="M6.8,28.9v-6.3h2.6v-7.4H6.8V3.1H4.6v12.2H2v7.4h2.6v6.3H6.8z M4.2,20.4v-2.9h2.9v2.9H4.2z"/>
</g>
</svg>
