<?xml version="1.0" encoding="utf-8"?>
<!-- Generator: Adobe Illustrator 19.2.1, SVG Export Plug-In . SVG Version: 6.00 Build 0)  -->
<svg version="1.1" id="Layer_1" xmlns="http://www.w3.org/2000/svg" xmlns:xlink="http://www.w3.org/1999/xlink" x="0px" y="0px"
	 viewBox="0 0 32 32" enable-background="new 0 0 32 32" xml:space="preserve">
<path fill="#FFFFFF" d="M30.9,1.7L27.6,5c-0.1-0.1-0.2-0.2-0.3-0.3c-3-3-7-4.7-11.3-4.7C11.7,0,7.7,1.7,4.7,4.7c-3,3-4.7,7-4.7,11.3
	c0,4.3,1.7,8.3,4.7,11.3C7.8,30.4,11.9,32,16,32c4.1,0,8.2-1.6,11.3-4.7l1.4-1.4l-2.8-2.8l-1.4,1.4c-4.7,4.7-12.3,4.7-17,0
	C5.3,22.2,4,19.2,4,16c0-3.2,1.2-6.2,3.5-8.5C9.8,5.3,12.8,4,16,4c3.2,0,6.2,1.2,8.5,3.5c0.1,0.1,0.2,0.2,0.3,0.3L21,11.6
	c-0.4,0.4-0.1,1.1,0.5,1.1h9.9c0.4,0,0.6-0.3,0.6-0.6V2.1C32,1.6,31.3,1.3,30.9,1.7z"/>
</svg>
